Coordinates
version=1
nRows=16
nColumns=40
inDegrees=yes

Units are S.I. units (second, meters, Newtons, ...)
Angles are in degrees.

endheader
time	pelvis_tilt	pelvis_list	pelvis_rotation	pelvis_tx	pelvis_ty	pelvis_tz	hip_flexion_r	hip_adduction_r	hip_rotation_r	knee_angle_r	knee_angle_r_beta	ankle_angle_r	subtalar_angle_r	mtp_angle_r	hip_flexion_l	hip_adduction_l	hip_rotation_l	knee_angle_l	knee_angle_l_beta	ankle_angle_l	subtalar_angle_l	mtp_angle_l	lumbar_extension	lumbar_bending	lumbar_rotation	arm_flex_r	arm_add_r	arm_rot_r	elbow_flex_r	pro_sup_r	wrist_flex_r	wrist_dev_r	arm_flex_l	arm_add_l	arm_rot_l	elbow_flex_l	pro_sup_l	wrist_flex_l	wrist_dev_l
     15.24500000	     -4.40653722	     -3.04002322	      1.05991290	      0.76987814	      0.92564926	      0.45902505	     -1.21126856	     -1.15578002	    -18.06360535	     17.76376068	     17.76376068	     18.53132194	     11.09255696	     -2.79771088	     25.45216317	     -3.50633978	     -0.45788559	     24.32022640	     24.32022640	      6.94552886	    -12.45707545	      7.36770284	     -7.98171213	      8.73900411	      4.02181834	     32.88007257	    -18.28058632	     -6.45920739	     86.39987941	     44.73411582	      0.00000000	      0.00000000	     -9.57384246	     -8.51526472	      4.74280231	     36.30251197	     44.78644267	      0.00000000	      0.00000000
     15.25742857	     -4.44556066	     -2.99780026	      0.90262113	      0.77055441	      0.92572379	      0.45603351	     -1.10552765	     -1.63445682	    -17.88274898	     18.76371795	     18.76371795	     18.47584968	     10.98912916	     -3.13833293	     25.19532786	     -3.31656623	     -0.56635144	     24.75211276	     24.75211276	      7.60657128	    -12.58399064	      7.33574748	     -7.96387581	      8.74776334	      4.18269299	     31.46912968	    -18.84166091	     -6.61177379	     85.05224178	     44.78417401	      0.00000000	      0.00000000	     -8.70105446	     -8.70465230	      4.48073610	     36.89095118	     44.84082570	      0.00000000	      0.00000000
     15.26985714	     -4.31830162	     -3.13773948	      0.82162451	      0.77140553	      0.92611623	      0.45316233	     -1.24098540	     -1.87462004	    -17.74985049	     19.64648484	     19.64648484	     18.29227653	     10.89691614	     -3.34633640	     24.66835951	     -3.28834644	     -0.51829513	     24.99976132	     24.99976132	      8.18982110	    -12.71817391	      7.17054181	     -8.15367162	      8.95602538	      3.79545509	     30.04651469	    -18.77103199	     -6.60584368	     84.23015139	     44.80643983	      0.00000000	      0.00000000	     -7.93390978	     -8.93075574	      4.33213623	     37.27739637	     44.87212481	      0.00000000	      0.00000000
     15.28228571	     -4.52658107	     -2.93624092	      0.54317817	      0.77181366	      0.92580848	      0.45037335	     -0.26740999	     -2.74957954	    -17.38262889	     21.90342303	     21.90342303	     18.15270663	     10.39276918	     -4.36808748	     24.49850115	     -3.00872810	     -0.95960044	     25.26341955	     25.26341955	      8.83121623	    -12.60886781	      7.09435175	     -7.90390336	      8.67068001	      4.43166013	     28.35852468	    -19.52289558	     -7.41308711	     81.84590402	     44.90993543	      0.00000000	      0.00000000	     -6.95073795	     -9.20474325	      3.78262454	     38.31626078	     44.96217249	      0.00000000	      0.00000000
     15.29471429	     -4.56819582	     -2.92637487	      0.35906252	      0.77234652	      0.92589768	      0.44770106	      0.51468937	     -3.35824276	    -16.94593400	     24.08323672	     24.08323672	     17.66984782	      9.72022064	     -5.50104004	     24.09959138	     -2.90205574	     -1.21479168	     25.41275009	     25.41275009	      9.39821520	    -12.41207800	      7.00334533	     -7.87582840	      8.61899119	      4.48613099	     26.73640874	    -19.54182757	     -8.15269928	     79.84323276	     44.99819762	      0.00000000	      0.00000000	     -6.08831056	     -9.49526145	      3.22701558	     39.20377182	     45.04972338	      0.00000000	      0.00000000
     15.30714286	     -4.58408723	     -3.03058970	      0.20420724	      0.77280321	      0.92610353	      0.44530271	      1.35242501	     -3.73478347	    -16.23952149	     26.20619220	     26.20619220	     15.97273793	      8.12169035	     -9.35624683	     23.66353475	     -2.95460247	     -1.53321305	     25.53356430	     25.53356430	     10.11776413	    -11.99577548	      7.03061274	     -7.85385616	      8.63782808	      4.19434167	     25.67409858	    -18.53340595	    -10.22041931	     76.45148094	     45.18980733	      0.00000000	      0.00000000	     -5.57508054	     -9.66573827	      1.48245446	     40.69717291	     45.29725290	      0.00000000	      0.00000000
     15.31957143	     -4.58747819	     -2.97282549	      0.02759829	      0.77308507	      0.92630795	      0.44290690	      2.66722307	     -4.50243972	    -15.66801819	     29.34806934	     29.34806934	     15.16709303	      7.10215819	    -10.39373746	     23.13133991	     -2.83099018	     -1.89246882	     25.47631575	     25.47631575	     10.58604502	    -11.69573100	      6.73347149	     -7.92547217	      8.50829489	      4.12811203	     23.82766401	    -18.64203123	    -10.18261457	     74.95196956	     45.23250859	      0.00000000	      0.00000000	     -4.54285112	    -10.06118283	      1.04230765	     41.26289053	     45.36668647	      0.00000000	      0.00000000
     15.33200000	     -4.65443103	     -3.02561315	     -0.15412484	      0.77319173	      0.92651492	      0.44080068	      4.27558489	     -5.05795232	    -14.78788893	     32.72610837	     32.72610837	     13.90081917	      5.40158766	    -11.65024359	     22.67312060	     -2.86025913	     -2.29638047	     25.39351029	     25.39351029	     10.99826659	    -11.28396237	      6.33347942	     -7.90202005	      8.47569671	      4.16435710	     21.96320981	    -18.65867879	    -10.52469638	     72.79349923	     45.31007905	      0.00000000	      0.00000000	     -3.42698594	    -10.41870414	      0.47972323	     41.96682508	     45.45206367	      0.00000000	      0.00000000
     15.34442857	     -4.57423380	     -2.99514523	     -0.31428088	      0.77326244	      0.92692609	      0.43885421	      5.92713763	     -5.68761738	    -13.83715125	     36.37436103	     36.37436103	     12.44940733	      3.69226719	    -12.56766784	     22.03057621	     -2.80240575	     -2.67861354	     25.27151805	     25.27151805	     11.42929889	    -10.83764745	      5.93107695	     -8.08248879	      8.30559023	      4.02400961	     20.15153511	    -18.41424055	    -10.78475355	     70.83733368	     45.37723424	      0.00000000	      0.00000000	     -2.25745051	    -10.90925384	      0.00747608	     42.57955966	     45.52451495	      0.00000000	      0.00000000
     15.35685714	     -4.53503125	     -3.22231813	     -0.48217612	      0.77319781	      0.92742279	      0.43742749	      7.68296946	     -5.74014529	    -12.43792103	     39.80357850	     39.80357850	      9.99549493	      0.73881291	    -15.00442870	     21.43696970	     -3.11672774	     -3.21267383	     25.12290180	     25.12290180	     11.70588034	    -10.05288869	      4.83465165	     -8.13892941	      8.37907461	      3.75134029	     19.20511628	    -17.42275829	    -12.39547706	     66.37845954	     45.57815533	      0.00000000	      0.00000000	     -1.20553730	    -11.22917996	     -1.25970657	     43.26833372	     45.69785291	      0.00000000	      0.00000000
     15.36928571	     -4.41668984	     -3.16152631	     -0.57551122	      0.77304470	      0.92794651	      0.43575604	      9.57806009	     -6.35869624	    -11.59683535	     43.70533996	     43.70533996	      8.33480350	     -0.61255949	    -15.14665741	     20.72112904	     -2.99954341	     -3.50446913	     24.88275426	     24.88275426	     12.03746589	     -9.72392148	      4.59000957	     -8.36165903	      8.17143174	      3.46367612	     17.17323091	    -17.08349799	    -12.26987587	     64.89218862	     45.61352306	      0.00000000	      0.00000000	      0.05058905	    -11.86483963	     -1.63235262	     43.83499641	     45.75758474	      0.00000000	      0.00000000
     15.38171429	     -4.42616007	     -3.35667453	     -0.76988664	      0.77276092	      0.92841395	      0.43473705	     11.71948427	     -6.31826429	    -10.19947324	     47.47595419	     47.47595419	      6.69083508	     -2.71422788	    -14.10516984	     20.14026137	     -3.27657988	     -3.99251875	     24.63590978	     24.63590978	     12.23845022	     -9.09815252	      3.52908780	     -8.35249848	      8.21019488	      3.35470970	     16.01720106	    -16.51554161	    -13.06502420	     60.40967187	     45.77872510	      0.00000000	      0.00000000	      1.32815666	    -12.22899178	     -2.55498833	     44.34200380	     45.89547050	      0.00000000	      0.00000000
     15.39414286	     -4.32470350	     -3.34478537	     -0.91267284	      0.77246275	      0.92898506	      0.43360448	     13.74433506	     -6.58206375	     -9.10405157	     51.11295715	     51.11295715	      5.04008175	     -4.00973011	    -13.57959441	     19.40218433	     -3.23973587	     -4.27425648	     24.31532089	     24.31532089	     12.57143312	     -8.78492799	      3.30492813	     -8.55047487	      8.04461949	      3.19709876	     13.94872668	    -16.19602741	    -12.93645097	     58.71755776	     45.81959578	      0.00000000	      0.00000000	      2.64659325	    -12.83732660	     -2.88401399	     44.94851783	     45.95147426	      0.00000000	      0.00000000
     15.40657143	     -4.23574306	     -3.44242837	     -1.06411748	      0.77208935	      0.92957221	      0.43268287	     15.75377394	     -6.56026068	     -7.95646406	     54.46327465	     54.46327465	      3.61517563	     -5.20593361	    -12.57554277	     18.69645197	     -3.33498176	     -4.53653012	     24.02427363	     24.02427363	     12.93033710	     -8.40758604	      2.97934981	     -8.73825794	      8.04909650	      3.22351553	     11.92803963	    -15.93272768	    -12.88711392	     56.40337545	     45.88532021	      0.00000000	      0.00000000	      4.11776587	    -13.36220332	     -3.18000289	     45.56176783	     46.00598006	      0.00000000	      0.00000000
     15.41900000	     -4.08829067	     -3.62398736	     -1.16410803	      0.77173281	      0.93031746	      0.43203312	     17.74924997	     -6.39830266	     -6.97603647	     57.81488987	     57.81488987	      3.80378621	     -5.21040371	     -7.44528482	     17.93136600	     -3.58500426	     -4.97437122	     23.71031946	     23.71031946	     12.97793903	     -7.80245509	      1.91672883	     -8.80112536	      8.02665485	      2.86225621	     11.59592285	    -15.08981011	    -13.51291279	     50.08142748	     46.10792305	      0.00000000	      0.00000000	      5.62273846	    -13.96138285	     -3.41561115	     45.39731726	     46.06975871	      0.00000000	      0.00000000
     15.43142857	     -3.93960019	     -3.74297754	     -1.26459228	      0.77134351	      0.93098870	      0.43134849	     19.53677014	     -6.22115551	     -6.05326574	     60.48378200	     60.48378200	      3.07603883	     -5.67560192	     -6.22711453	     17.16088641	     -3.65653234	     -5.04435912	     23.39319100	     23.39319100	     13.20179018	     -7.76512542	      1.72702744	     -9.04564635	      8.01162024	      2.98641583	      9.51160963	    -14.87864192	    -13.35362140	     47.78391920	     46.16049040	      0.00000000	      0.00000000	      7.12314450	    -14.39386633	     -3.80232376	     46.33826594	     46.14192362	      0.00000000	      0.00000000
